<svg id="레이어_1" data-name="레이어 1" xmlns="http://www.w3.org/2000/svg" viewBox="0 0 1024 1024"><defs><style>.cls-1{fill:#ff6d00;}.cls-2{fill:#fff;}.cls-3{fill:#ffa300;}.cls-4,.cls-5,.cls-6{fill:#ffd400;}.cls-5{opacity:0.75;}.cls-6{opacity:0.5;}</style></defs><title>gulmate_app_icon</title><path class="cls-1" d="M102,559.69c0-121.57,59.68-298.38,170.19-369.11S617,33.65,793.8,190.58c216.61,192.24,137,366.9,119.35,431S749.6,897.85,581.62,906.69s-305-44.2-366.9-99.46C152.51,751.68,102,681.25,102,559.69Z"/><path class="cls-2" d="M168.36,551.05c0-102.36,50.25-251.24,143.3-310.79s290.31-132.13,439.19,0c182.39,161.87,115.39,308.92,100.5,362.89S713.63,835.78,572.2,843.22,315.38,806,263.27,759.48C210.89,712.7,168.36,653.4,168.36,551.05Z"/><path class="cls-3" d="M513.16,480.69C511,471.85,413.7,239.77,380.55,235.35S223.62,317.13,217,392.28c-1.24,14.09,2.2,38.77,17.68,48.62C259,456.38,480,496.16,495.48,496.16S515.37,489.53,513.16,480.69Z"/><path class="cls-3" d="M420.33,213.25C409.28,242,460.11,297.24,480,354.7c16.17,46.71,26.53,119.36,55.26,126C549.51,484,596.8,423,628.09,365.76c31.81-58.15,47.51-112.62,48.63-126,2.21-26.52-42-59.67-108.31-61.88S431.38,184.52,420.33,213.25Z"/><path class="cls-3" d="M718.71,261.88S572.84,454.16,564,480.69,572.84,505,572.84,505s232.07-48.62,252-68.52,13.6-69.93-13.26-108.3C780.6,284,740.81,248.61,718.71,261.88Z"/><path class="cls-3" d="M561.78,522.68c6.63-15.47,76.51-25.25,143.67-37.57,57.4-10.53,101.67-37.58,121.56-30.95s22.1,84,8.84,137S780.6,692.87,754.07,701.71s-66.3-53.05-112.72-95S555.15,538.15,561.78,522.68Z"/><path class="cls-3" d="M192.68,496.16s6.63-35.36,30.94-30.94,114.93,11,156.93,17.68S511,496.16,511,520.47s-194.5,103.88-216.6,112.72-92.83,24.32-99.46-2.21S188.26,520.47,192.68,496.16Z"/><path class="cls-3" d="M267.82,734.86c-15.47-24.31-19.89-57.46,15.48-72.93s93-51.57,150.29-81.78c44.2-23.31,68.7-40.18,77.36-35.37,19.89,11.06-66.31,176.82-86.2,225.45-19,46.38-39.78,37.57-75.15,24.31S283.3,759.18,267.82,734.86Z"/><path class="cls-3" d="M544.1,540.36c-13.26,2.3-34.61,56.69-37.57,71.39s-70.73,174.4-57.47,192.76,112.72,25.24,145.88,18.35,126-59.66,126-87.19S634.72,625.52,617,607.16C603.6,593.21,557.36,538.07,544.1,540.36Z"/><path class="cls-4" d="M486,473.09c6.34-3.17-15.47-32.65-24.06-32.65s-8.6,8.59,0,17.18S479.15,476.53,486,473.09Z"/><path class="cls-5" d="M543.57,410.59c-5-3.75-8.25-1.87-9.9,9.38s0,37.49,5,37.49,9.9-30,9.9-33.74S548.52,414.34,543.57,410.59Z"/><path class="cls-6" d="M528.66,333.68c-3.77-2.09-5.85-.47-5.87,7.41s3.7,25.75,7.1,25.27,3.84-21.58,3.47-24.16S532.43,335.77,528.66,333.68Z"/><path class="cls-6" d="M399.89,528.82c-2.31,3.64-.83,5.81,7.05,6.3s25.92-2.15,25.64-5.58-21.31-5.12-23.91-4.9S402.19,525.18,399.89,528.82Z"/><path class="cls-6" d="M401.45,431.54c-3.21,1.41-3.19,3.56,1.91,7.47s18.52,10.31,19.89,7.86-12.1-13.14-13.95-14.17S404.66,430.12,401.45,431.54Z"/><path class="cls-5" d="M671.34,516.13c1.85-3,.61-4.75-5.81-5.07s-21.1,2-20.83,4.82,17.42,4,19.53,3.74S669.5,519.12,671.34,516.13Z"/><path class="cls-4" d="M608,459.31c-7.89,3.95-25.63,19.72-21.69,23.67s21.69-7.89,27.6-11.84,11.83-7.88,9.86-11.83S615.87,455.37,608,459.31Z"/><path class="cls-5" d="M568.16,388.64c-3.17,6.48-6.88,25.54-2.36,26.15S576,398.9,577.88,393.4s3.78-11,.54-12.58S571.33,382.17,568.16,388.64Z"/><path class="cls-5" d="M439.82,393.46c2.3,6.84,13.07,23,16.71,20.24s-3.93-18.46-6.46-23.69-5.05-10.48-8.47-9.33S437.52,386.63,439.82,393.46Z"/><path class="cls-5" d="M644.43,410.55c-6.11,3.64-19.45,17.39-16,20.33s17-7.64,21.51-11.16,9.05-7.05,7.23-10.11S650.54,406.91,644.43,410.55Z"/><path class="cls-6" d="M649.5,547.08c-2.78-1.83-11.3-4.66-11.84-2.62s6.68,5.6,9.09,6.79,4.81,2.38,5.73,1S652.28,548.91,649.5,547.08Z"/><path class="cls-6" d="M667.57,447.82c-3.27.67-11.28,4.7-10.23,6.52s8.69-.76,11.23-1.62,5.09-1.72,4.76-3.36S670.83,447.15,667.57,447.82Z"/><path class="cls-4" d="M592.24,527.1s-6.35,1.85-2.12,7.41,21.17,9.26,27.52,9.26,12.7-1.85,12.7-5.56-8.47-11.11-16.94-11.11Z"/><path class="cls-6" d="M423.44,629s2.58-4.15-2-4.27-15.16,7.26-18.52,10.62-5.94,7.52-4.36,9.09,9.22.26,13.7-4.23Z"/><path class="cls-6" d="M531.48,632.76s-2.5-3.34-5.42.41-2.09,14.6-.83,18.36,3.75,7.09,6.25,6.26,5.84-7.51,4.18-12.52Z"/><path class="cls-4" d="M552.2,568.84s-4.2-6.31-6.31,4.21,2.11,33.66,6.31,33.66,8.42-8.42,6.32-18.94A84.18,84.18,0,0,0,552.2,568.84Z"/><path class="cls-5" d="M492.66,567.3s-9.74,2-15.59,9.75-5.85,15.6-3.9,17.55,5.85-2,11.7-7.8,11.69-13.65,11.69-15.6S492.66,567.3,492.66,567.3Z"/><path class="cls-5" d="M588.24,614.66s2-7.82-1.61-14.86-9.34-9.79-11.46-9.06-.64,5,1.57,11.32,5.84,13.39,7.27,14.08S588.24,614.66,588.24,614.66Z"/><path class="cls-5" d="M414.19,557.43s-10.59.62-17,4.24-6.57,7.44-4.49,8.46,6.36-.75,12.79-3.42,12.87-6.29,12.9-7.24S414.19,557.43,414.19,557.43Z"/><path class="cls-4" d="M450,520.16s-4,4.46,0,7.43,18.2,1.49,24.27,0,16.18-4.46,14.15-7.43-10.11-3-16.17-3S454,517.18,450,520.16Z"/></svg>